<?xml version="1.0" encoding="iso-8859-1"?>
<!-- Generator: Adobe Illustrator 19.0.0, SVG Export Plug-In . SVG Version: 6.00 Build 0)  -->
<svg version="1.1" id="Capa_1" xmlns="http://www.w3.org/2000/svg" xmlns:xlink="http://www.w3.org/1999/xlink" x="0px" y="0px"
	 viewBox="0 0 512 512" style="enable-background:new 0 0 512 512;" xml:space="preserve">
<path style="fill:#303C42;" d="M509.238,319.765c-9.464-53.081-49.673-99.493-102.441-118.25c-0.042-0.01-1.803-0.625-1.845-0.646
	c-44.368-15.214-78.543-49.372-94.416-95.555C291.9,52.942,245.479,12.751,192.283,2.924c-50.997-9.451-152.354,5.7-168.019,21.299
	C8.631,39.771-6.523,141.129,2.919,192.2c9.849,53.165,50.059,99.556,104.286,118.834c44.368,15.214,78.543,49.372,94.406,95.555
	c18.896,53.081,64.191,92.314,118.231,102.38c11.34,2.115,24.649,3.032,38.75,3.032c53.29,0,117.783-13.14,129.164-24.446
	C503.183,472.205,518.378,371.002,509.238,319.765z"/>
<path style="fill:#E1BBA5;" d="M323.719,487.938c-45.865-8.542-85.896-43.281-102.542-90.125
	c-17.365-50.604-56.354-89.573-108.594-107.51c-45.313-16.115-80.073-56.125-88.552-101.917
	c-8.296-44.904,4.303-118.436,12.194-141.958C48.706,51.29,68.556,54.52,98.5,59.021c14.885,2.24,31.042,4.667,47.292,7.667
	c45.823,8.469,85.844,43.208,102.521,90.135c17.375,50.594,56.365,89.573,108.594,107.5c45.646,16.219,80.406,56.198,88.542,101.854
	c3.042,17.073,4.375,29.542,5.542,40.531c2.276,21.283,4.091,37.354,15.775,68.275C443.986,483.233,369.052,496.435,323.719,487.938
	z"/>
<path style="opacity:0.1;enable-background:new    ;" d="M450.99,406.708c-1.167-10.99-2.5-23.458-5.542-40.531
	c-1.358-7.62-3.706-14.988-6.474-22.208c1.914,12.188,2.99,21.982,3.918,30.724c0.786,7.353,1.517,14.083,2.62,21.018
	c4.564,28.724-15.691,55.54-44.526,59.337c-28.608,3.767-61.194,5.405-85.365,0.874c-45.865-8.542-85.896-43.281-102.542-90.125
	c-17.365-50.604-56.354-89.573-108.594-107.51c-37.384-13.296-67.322-42.957-81.508-78.611c0.354,2.904,0.552,5.997,1.053,8.71
	c8.479,45.792,43.24,85.802,88.552,101.917c52.24,17.938,91.229,56.906,108.594,107.51c16.646,46.844,56.677,81.583,102.542,90.125
	c45.333,8.497,120.267-4.704,143.046-12.954C455.081,444.063,453.266,427.991,450.99,406.708z"/>
<path style="fill:#FBB477;" d="M480.24,448.517c-5.053-16.895-6.4-28.773-8.031-44.069c-1.208-11.344-2.583-24.198-5.76-42.021
	c-9.458-53.063-49.656-99.458-104.24-118.854c-44.333-15.208-78.49-49.354-94.354-95.521
	c-18.625-52.344-65.01-92.521-118.188-102.344c-16.49-3.042-32.885-5.51-48-7.781c-12.371-1.862-26.178-3.945-37.728-6.167
	c23.141-5.258,58.245-10.438,89.874-10.438c12.427,0,24.292,0.802,34.625,2.708c45.823,8.469,85.844,43.219,102.531,90.146
	c17.365,50.594,56.365,89.573,106.958,106.927l1.625,0.563l0.01,0.01c45.646,16.219,80.396,56.198,88.531,101.854
	C494.708,360.604,487.396,416.669,480.24,448.517z"/>
<path style="opacity:0.2;fill:#FFFFFF;enable-background:new    ;" d="M135.754,43.336c6.079-0.332,12.182-0.669,18.12-0.669
	c12.427,0,24.292,0.802,34.625,2.708c45.823,8.469,85.844,43.219,102.531,90.146c17.365,50.594,56.365,89.573,106.958,106.927
	l1.625,0.563l0.01,0.01c45.646,16.219,80.396,56.198,88.531,101.854c1.315,7.372,1.953,15.617,2.277,24.151
	c0.576-16.276,0.046-32.13-2.339-45.495c-8.135-45.656-42.885-85.635-88.531-101.854l-0.01-0.01l-1.625-0.563
	c-50.594-17.354-89.594-56.333-106.958-106.927C274.281,67.25,234.26,32.5,188.438,24.031c-10.333-1.906-22.198-2.708-34.625-2.708
	c-31.629,0-66.733,5.18-89.874,10.438c11.549,2.221,25.357,4.305,37.728,6.167C112.492,39.553,124.049,41.368,135.754,43.336z"/>
<g>
	<path style="fill:#303C42;" d="M333.885,427.167c-18.365-5.823-32.271-19.427-35.438-34.667c-1.208-5.771-6.906-9.469-12.615-8.281
		c-5.771,1.198-9.479,6.854-8.281,12.615c4.781,23.021,23.906,42.438,49.896,50.667c1.073,0.344,2.156,0.5,3.219,0.5
		c4.531,0,8.729-2.906,10.167-7.448C342.615,434.938,339.5,428.948,333.885,427.167z"/>
	<path style="fill:#303C42;" d="M309.333,341.333c4.531,0,8.729-2.906,10.167-7.448c1.781-5.615-1.333-11.604-6.948-13.385
		c-18.365-5.823-32.271-19.427-35.438-34.667c-1.208-5.781-6.927-9.49-12.615-8.281c-5.771,1.198-9.479,6.854-8.281,12.615
		c4.781,23.021,23.906,42.438,49.896,50.667C307.188,341.177,308.271,341.333,309.333,341.333z"/>
	<path style="fill:#303C42;" d="M184.552,235.167c-18.365-5.823-32.271-19.427-35.438-34.667c-1.208-5.771-6.885-9.479-12.615-8.281
		c-5.771,1.198-9.479,6.854-8.281,12.615c4.781,23.021,23.906,42.438,49.896,50.667c1.073,0.344,2.156,0.5,3.219,0.5
		c4.531,0,8.729-2.906,10.167-7.448C193.281,242.938,190.167,236.948,184.552,235.167z"/>
	<path style="fill:#303C42;" d="M163.219,107.167c-5.646-1.802-11.604,1.344-13.385,6.948c-1.781,5.615,1.333,11.604,6.948,13.385
		c18.365,5.823,32.271,19.427,35.438,34.667c1.052,5.042,5.49,8.5,10.438,8.5c0.719,0,1.448-0.073,2.177-0.219
		c5.771-1.198,9.479-6.854,8.281-12.615C208.333,134.813,189.208,115.396,163.219,107.167z"/>
	<path style="fill:#303C42;" d="M397.885,363.167c-5.646-1.802-11.604,1.323-13.385,6.948c-1.781,5.615,1.333,11.604,6.948,13.385
		c7.375,2.333,12.906,7.573,14.104,13.333c1.052,5.042,5.49,8.5,10.438,8.5c0.719,0,1.448-0.073,2.177-0.219
		c5.771-1.198,9.479-6.854,8.281-12.615C423.667,379.104,412.719,367.865,397.885,363.167z"/>
	<path style="fill:#303C42;" d="M77.885,149.833C70.51,147.5,64.979,142.26,63.781,136.5c-1.219-5.781-6.875-9.458-12.615-8.281
		c-5.771,1.198-9.479,6.854-8.281,12.615c2.792,13.406,13.729,24.646,28.563,29.333c1.073,0.344,2.156,0.5,3.219,0.5
		c4.531,0,8.729-2.906,10.167-7.448C86.615,157.604,83.5,151.604,77.885,149.833z"/>
</g>
<linearGradient id="SVGID_1_" gradientUnits="userSpaceOnUse" x1="-47.8387" y1="640.6093" x2="-21.5713" y2="628.3626" gradientTransform="matrix(21.3333 0 0 -21.3333 996.3334 13791.667)">
	<stop  offset="0" style="stop-color:#FFFFFF;stop-opacity:0.2"/>
	<stop  offset="1" style="stop-color:#FFFFFF;stop-opacity:0"/>
</linearGradient>
<path style="fill:url(#SVGID_1_);" d="M509.238,319.765c-9.464-53.081-49.673-99.493-102.441-118.25
	c-0.042-0.01-1.803-0.625-1.845-0.646c-44.368-15.214-78.543-49.372-94.416-95.555C291.9,52.942,245.479,12.751,192.283,2.924
	c-50.997-9.451-152.354,5.7-168.019,21.299C8.631,39.771-6.523,141.129,2.919,192.2c9.849,53.165,50.059,99.556,104.286,118.834
	c44.368,15.214,78.543,49.372,94.406,95.555c18.896,53.081,64.191,92.314,118.231,102.38c11.34,2.115,24.649,3.032,38.75,3.032
	c53.29,0,117.783-13.14,129.164-24.446C503.183,472.205,518.378,371.002,509.238,319.765z"/>
<g>
</g>
<g>
</g>
<g>
</g>
<g>
</g>
<g>
</g>
<g>
</g>
<g>
</g>
<g>
</g>
<g>
</g>
<g>
</g>
<g>
</g>
<g>
</g>
<g>
</g>
<g>
</g>
<g>
</g>
</svg>
